<svg xmlns="http://www.w3.org/2000/svg" height="217.5" width="580"  xmlns:v="https://vecta.io/nano"><g fill="#f68d11"><path d="M161.209 75L127.5 63.75V15l33.75 10-.041 50M170 25l33.75-10-.118 48.716L170 75V25m26.875-15.279L165.42 0l-31.045 9.721 31.09 8.334 31.41-8.334M246.209 75L212.5 63.75V15l33.75 10-.041 50M255 25l33.75-10-.118 48.716L255 75V25m26.875-15.279L250.42 0l-31.045 9.721 31.09 8.334 31.41-8.334M33.75 96.25L0 86.25V135l33.709 11.25.041-50m8.75 0l33.75-10-.117 48.717L42.5 146.25v-50"/><path d="M69.375 80.971L37.92 71.25 6.875 80.971l31.09 8.334 31.41-8.334m49.334 65.279L85 135V86.25l33.75 10-.041 50m8.791-50l33.75-10-.118 48.717L127.5 146.25v-50m26.875-15.279L122.92 71.25l-31.045 9.721 31.09 8.334 31.41-8.334M76.209 217.5L42.5 206.25V157.5l33.75 10-.041 50m8.791-50l33.75-10-.117 48.717L85 217.5v-50m26.875-15.279L80.42 142.5l-31.045 9.721 31.09 8.334 31.41-8.334"/></g><g fill="#100f0d"><path d="M225.488 174.406l-2.48.009c-.91 0-2.07.615-2.355 1.611l-7.524 26.506-7.441-26.449c-.224-.829-1.005-1.669-2.067-1.669h-2.936c-1.058 0-1.829.851-2.042 1.686l-6.923 26.174-7.153-26.255c-.282-.96-1.471-1.605-2.404-1.605l-3.569-.006c-.762 0-1.471.328-1.851.855-.257.358-.329.763-.21 1.115l11.05 39.12c.244.823.956 1.651 1.999 1.651h3.549c.959 0 1.799-.699 2.041-1.69l6.801-26.059 7.401 26.088c.222.799.939 1.66 1.986 1.66h3.491c.971 0 1.789-.675 2.029-1.664l10.636-39.091c.125-.376.053-.795-.201-1.148-.374-.519-1.074-.841-1.827-.841m30.685 16.611h-18.748c.431-5.261 3.847-10.716 9.635-10.926 6.159.201 8.976 5.531 9.113 10.926zm-9.126-16.889c-12.664 0-18.431 11.196-18.431 21.597 0 12.981 7.17 21.369 18.266 21.369 7.941 0 13.995-4.012 16.61-11.022a1.48 1.48 0 0 0-.123-1.226c-.266-.474-.771-.831-1.369-.962l-3.515-.672c-.944-.148-2.025.411-2.382 1.222-1.708 3.895-4.82 6.105-8.726 6.22-3.759-.116-7.21-2.349-8.791-5.685-1.285-2.725-1.475-5.411-1.496-8.143l25.451-.009c.534 0 1.086-.235 1.476-.63.326-.328.504-.735.5-1.143-.062-10.112-4.684-20.916-17.47-20.916m48.781 21.66c0 2.395-.434 14.354-8.93 14.66-2.848-.109-5.725-1.783-7.332-4.257-1.184-1.872-1.875-4.459-2.053-7.66v-7.036c.139-5.39 3.933-11.305 9.358-11.534 8.525.336 8.957 13.243 8.957 15.828zm-7.598-22.023h-.674c-4.204 0-7.507 1.746-10.044 5.325l-.004-16.491c0-.926-.956-1.77-2.012-1.77h-3.66c-.956 0-2.026.757-2.029 1.77v51.48c.004.935.96 1.785 2.015 1.785l1.075-.006c1.015 0 1.738-.818 1.981-1.578l1.145-3.634c2.66 3.777 6.666 5.996 10.954 5.996h.656c11.294 0 16.349-10.985 16.349-21.871 0-5.419-1.336-10.6-3.665-14.215-2.691-4.189-7.324-6.792-12.087-6.792m55.829 20.866c-2.38-1.71-5.241-2.281-8.108-2.854l-5.496-1.019c-3.944-.648-6.226-1.706-6.226-5.186 0-3.679 3.813-5.085 7.045-5.172 3.947.1 6.916 1.861 8.358 4.959.342.73 1.101 1.221 1.89 1.221.135 0 .272-.015.402-.043l3.43-.758a2.13 2.13 0 0 0 1.363-1.006c.224-.396.272-.829.139-1.215-2.099-6.114-7.428-9.345-15.489-9.345-7.284.016-15.067 3.255-15.067 12.301 0 6.183 3.885 10.109 11.555 11.671l6.152 1.172c3.377.647 6.831 1.796 6.831 5.423 0 5.369-6.248 5.916-8.136 5.955-4.238-.091-9.035-1.981-10.2-5.984-.234-.88-1.341-1.502-2.312-1.3l-3.587.74c-.54.114-1.034.465-1.321.939-.241.395-.31.837-.199 1.241 1.851 6.641 8.262 10.646 17.15 10.713l.197.001c7.938 0 16.419-3.399 16.419-12.934 0-3.881-1.746-7.352-4.789-9.521m36.284-3.573h-18.752c.429-5.266 3.845-10.724 9.632-10.924 6.156.195 8.978 5.525 9.12 10.924zm-9.13-16.891c-12.666 0-18.435 11.196-18.435 21.597 0 12.98 7.171 21.367 18.269 21.367 7.942 0 13.996-4.013 16.614-11.021.139-.401.095-.837-.125-1.228-.266-.474-.772-.832-1.369-.96l-3.52-.672c-.824-.134-1.973.292-2.377 1.224-1.709 3.893-4.822 6.103-8.725 6.223-3.762-.12-7.212-2.353-8.788-5.687-1.288-2.719-1.479-5.407-1.498-8.145l25.449-.006a2.12 2.12 0 0 0 1.469-.626c.327-.329.505-.736.501-1.147-.059-10.111-4.676-20.916-17.465-20.916m41.497.473a13.02 13.02 0 0 0-1.437-.081c-4.271 0-7.74 2.322-10.147 6.759l.009-3.885c-.004-.941-.942-1.768-2.009-1.768h-3.179c-1.043 0-1.962.83-1.97 1.783l-.005 37.741c0 .947.92 1.779 1.97 1.779l3.709-.001c.965 0 2.051-.757 2.06-1.777l.002-19.027c0-3.138.293-5.501 1.791-8.298 2.141-3.983 5.131-5.937 9.141-5.969 1.005-.007 1.887-.885 1.887-1.878v-3.53c0-.924-.801-1.735-1.822-1.846m38.939-.743l-2.929.001c-.918 0-2.094.659-2.379 1.625l-9.494 29.838-9.695-29.809c-.286-.99-1.465-1.655-2.387-1.655l-4.183-.004c-.767 0-1.51.342-1.89.871-.255.354-.325.755-.199 1.13l13.269 39.361c.255.779.931 1.689 2.001 1.689h5.061c.929 0 1.69-.632 2.039-1.692l12.87-39.345c.129-.374.06-.776-.194-1.131-.382-.534-1.124-.88-1.891-.88m9.624-15.129c-2.697 0-4.891 2.2-4.891 4.906s2.194 4.905 4.891 4.905 4.895-2.199 4.895-4.905-2.196-4.906-4.895-4.906m2.013 14.89l-4.016-.004c-1.092 0-2.087.884-2.087 1.853l-.02 40.074c0 .485.25.966.683 1.324a2.25 2.25 0 0 0 1.411.512l4.045.006h.002c1.109-.01 2.082-.87 2.082-1.84v-40.076c0-.985-.983-1.849-2.1-1.849m37.534 27.175l-3.354.013c-.936 0-1.721.563-2.07 1.54-1.225 5.285-4 8.024-8.207 8.145-8.195-.244-8.831-11.666-8.831-15.161 0-6.97 2.414-14.491 9.152-14.69 4.067.125 7.026 3.041 7.914 7.794.168.97.913 1.704 1.93 1.831l3.589.035c1.072-.116 1.914-.928 1.906-1.934-1.27-8.588-7.221-14.14-15.175-14.14l-.275.007-.311-.007c-11.567 0-16.746 10.796-16.746 21.495 0 9.809 4.366 21.263 16.681 21.263h.59c7.755 0 13.609-5.436 15.285-14.25.038-.42-.108-.84-.405-1.181-.385-.442-.999-.726-1.673-.759m33.123-9.78h-18.755c.429-5.268 3.846-10.724 9.638-10.924 6.158.195 8.977 5.525 9.117 10.924zm-9.13-16.891c-12.665 0-18.433 11.196-18.433 21.597 0 12.98 7.171 21.367 18.269 21.367 7.939 0 13.99-4.01 16.61-11.02.136-.404.091-.841-.128-1.23-.27-.478-.761-.827-1.367-.96l-3.515-.672c-.827-.134-1.972.292-2.378 1.224-1.714 3.893-4.829 6.103-8.73 6.224-3.761-.122-7.21-2.354-8.785-5.689-1.289-2.723-1.48-5.411-1.5-8.145l25.451-.004a2.13 2.13 0 0 0 1.479-.632c.325-.331.5-.739.494-1.143-.059-10.111-4.678-20.916-17.467-20.916m49.351 20.464c-2.384-1.712-5.249-2.282-8.11-2.854l-5.496-1.019c-3.94-.648-6.221-1.706-6.221-5.186 0-4.745 5.889-5.142 7.038-5.172 3.951.1 6.92 1.861 8.359 4.96.345.73 1.106 1.22 1.896 1.22a1.96 1.96 0 0 0 .405-.043l3.428-.758a2.13 2.13 0 0 0 1.361-1.007c.222-.397.271-.828.138-1.214-2.096-6.114-7.426-9.345-15.491-9.345-7.281.016-15.062 3.255-15.062 12.301 0 6.184 3.884 10.11 11.553 11.671l6.155 1.172c3.378.647 6.831 1.796 6.831 5.423 0 5.369-6.247 5.916-8.136 5.955-3.929-.084-8.957-1.707-10.199-5.979-.227-.885-1.334-1.506-2.322-1.305l-3.581.74a2.08 2.08 0 0 0-1.325.944c-.239.396-.308.835-.195 1.236 1.846 6.641 8.256 10.646 17.145 10.713l.197.001c7.939 0 16.421-3.399 16.421-12.934 0-3.884-1.745-7.355-4.786-9.521"/><g fill-rule="evenodd"><path d="M410.894 96.503v-9.1a2.25 2.25 0 0 1 2.31-2.305l40.769-.001c1.301 0 2.351.949 2.351 2.296v7.804c-.012 1.306-1.116 3.014-3.071 5.727l-21.116 30.151c7.835-.186 16.13.987 23.25 4.99 1.609.902 2.036 2.241 2.168 3.548v9.71c0 1.339-1.465 2.886-3.002 2.08-12.549-6.575-29.202-7.293-43.081.076-1.416.756-2.901-.767-2.901-2.106v-9.226c0-1.472.03-4.001 1.516-6.253l24.469-35.098-21.301-.005c-1.304 0-2.346-.928-2.359-2.287m-148.715 56.813h-12.406c-1.179-.077-2.123-.966-2.216-2.1l.009-63.66c0-1.274 1.072-2.291 2.393-2.291l11.551-.006c1.21.067 2.178.98 2.26 2.137v8.318h.23c3.007-8.042 8.681-11.787 16.321-11.787 7.756 0 12.62 3.745 16.094 11.787 3.012-8.042 9.841-11.787 17.141-11.787 5.21 0 10.876 2.14 14.35 6.96 3.936 5.361 3.125 13.126 3.125 19.961l-.007 40.174c0 1.27-1.071 2.293-2.39 2.293h-12.387c-1.248-.077-2.229-1.072-2.229-2.288v-33.751c0-2.678.229-9.378-.349-11.921-.929-4.29-3.709-5.489-7.293-5.489-3.014 0-6.141 2.009-7.415 5.217-1.272 3.22-1.155 8.578-1.155 12.193v33.745c0 1.27-1.071 2.293-2.392 2.293h-12.39c-1.241-.077-2.225-1.072-2.225-2.288l-.016-33.751c0-7.1 1.161-17.545-7.636-17.545-8.915 0-8.567 10.178-8.567 17.545l-.007 33.745c.005 1.27-1.067 2.293-2.391 2.293m229.352-56.396c-9.151 0-9.728 12.457-9.728 20.23s-.115 24.377 9.615 24.377c9.611 0 10.072-13.396 10.072-21.566 0-5.357-.229-11.786-1.85-16.876-1.394-4.422-4.17-6.164-8.11-6.164zm-.113-12.989c18.407 0 28.366 15.805 28.366 35.892 0 19.428-11.004 34.834-28.366 34.834-18.064 0-27.907-15.809-27.907-35.501 0-19.825 9.955-35.225 27.908-35.225m52.241 69.388h-12.359c-1.245-.077-2.226-1.072-2.226-2.288l-.018-63.688c.102-1.16 1.133-2.075 2.378-2.075l11.509-.006c1.085.06 1.975.798 2.202 1.784v9.741h.235c3.469-8.708 8.335-12.856 16.899-12.856 5.559 0 11.004 2.004 14.475 7.498 3.24 5.088 3.24 13.659 3.24 19.822v40.061c-.139 1.129-1.145 2.007-2.37 2.007h-12.44c-1.148-.075-2.07-.922-2.209-2.007v-34.567c0-6.965.813-17.148-7.759-17.148-3.009 0-5.784 2.014-7.175 5.091-1.739 3.883-1.969 7.768-1.969 12.057v34.281c-.021 1.27-1.094 2.293-2.414 2.293"/><path d="M390.899 153.156c-.822.734-2 .783-2.928.289-4.119-3.424-4.859-5.011-7.11-8.268-6.809 6.935-11.63 9.015-20.446 9.015-10.446 0-18.566-6.445-18.566-19.333 0-10.066 5.451-16.913 13.225-20.271 6.73-2.954 16.13-3.492 23.322-4.3v-1.609c0-2.952.231-6.444-1.511-8.993-1.504-2.282-4.405-3.22-6.961-3.22-4.731 0-8.935 2.425-9.97 7.45-.21 1.116-1.03 2.224-2.154 2.278l-12.019-1.302c-1.017-.228-2.144-1.04-1.85-2.589 2.762-14.587 15.933-18.995 27.736-18.995 6.03 0 13.924 1.61 18.681 6.174 6.031 5.641 5.45 13.158 5.45 21.348v19.323c0 5.813 2.416 8.364 4.688 11.496.786 1.13.964 2.469-.046 3.297a509.47 509.47 0 0 0-9.507 8.237l-.034-.027zm-12.502-30.245c0 4.834.115 8.865-2.322 13.158-1.973 3.494-5.108 5.64-8.589 5.64-4.752 0-7.536-3.624-7.536-8.996 0-10.561 9.478-12.484 18.447-12.484v2.683m-150.091 30.244c-.82.734-2.006.783-2.934.289-4.119-3.424-4.856-5.011-7.11-8.268-6.805 6.935-11.629 9.015-20.45 9.015-10.442 0-18.565-6.445-18.565-19.333 0-10.066 5.456-16.913 13.23-20.271 6.731-2.954 16.13-3.492 23.322-4.3v-1.609c0-2.952.234-6.444-1.509-8.993-1.507-2.282-4.411-3.22-6.96-3.22-4.731 0-8.94 2.425-9.971 7.45-.215 1.116-1.031 2.224-2.154 2.278l-12.024-1.302c-1.015-.228-2.143-1.04-1.851-2.589 2.762-14.587 15.934-18.995 27.736-18.995 6.037 0 13.925 1.61 18.684 6.174 6.034 5.641 5.451 13.158 5.451 21.348v19.323c0 5.813 2.417 8.364 4.683 11.496.79 1.13.969 2.469-.039 3.297-2.535 2.123-7.039 6.029-9.511 8.237l-.029-.027zM215.8 122.911c0 4.834.114 8.865-2.319 13.158-1.971 3.494-5.109 5.64-8.585 5.64-4.762 0-7.545-3.624-7.545-8.996 0-10.561 9.475-12.484 18.449-12.484v2.683"/></g></g></svg>
