<?xml version="1.0" encoding="utf-8"?>
<svg viewBox="17.241 76.354 455.05 289.41" xmlns="http://www.w3.org/2000/svg">
  <path d="M 319.121 126.324 C 318.077 122.98 315.569 120.264 312.435 118.594 L 248.714 88.089 C 247.041 87.254 245.16 87.045 243.489 87.045 C 241.819 87.045 239.938 87.045 238.266 87.464 L 174.544 118.175 C 171.41 119.638 169.112 122.354 168.275 125.905 L 152.606 194.642 C 151.979 198.195 152.816 201.746 154.904 204.671 L 198.987 259.201 C 201.496 261.707 205.047 263.38 208.598 263.588 L 278.798 263.588 C 282.558 264.007 286.111 262.336 288.409 259.201 L 332.492 204.671 C 334.582 201.746 335.418 198.195 335.001 194.642 L 319.121 126.324 Z" id="path10349" style="fill: rgb(50, 109, 230);"/>
  <path d="M 309.302 191.926 L 309.302 191.926 C 309.094 191.926 308.884 191.926 308.884 191.717 C 308.884 191.51 308.466 191.51 308.048 191.51 C 307.212 191.301 306.377 191.301 305.54 191.301 C 305.124 191.301 304.706 191.301 304.287 191.091 L 304.077 191.091 C 301.78 190.882 299.273 190.464 296.976 189.837 C 296.348 189.629 295.722 189.001 295.513 188.375 C 295.722 188.375 295.513 188.375 295.513 188.375 L 295.513 188.375 L 293.841 187.956 C 294.676 181.899 294.26 175.63 293.006 169.572 C 291.543 163.511 289.037 157.663 285.693 152.438 L 286.947 151.185 L 286.947 151.185 L 286.947 150.977 C 286.947 150.35 287.155 149.515 287.574 149.096 C 289.453 147.425 291.334 146.171 293.422 144.918 L 293.422 144.918 C 293.841 144.708 294.26 144.5 294.676 144.292 C 295.513 143.874 296.139 143.455 296.976 143.037 C 297.185 142.829 297.392 142.829 297.601 142.62 C 297.81 142.411 297.601 142.411 297.601 142.202 L 297.601 142.202 C 299.483 140.739 299.901 138.232 298.439 136.351 C 297.81 135.516 296.557 134.891 295.513 134.891 C 294.468 134.891 293.422 135.307 292.587 135.935 L 292.587 135.935 L 292.378 136.143 C 292.17 136.351 291.96 136.56 291.753 136.56 C 291.125 137.188 290.499 137.814 290.081 138.441 C 289.872 138.86 289.453 139.067 289.243 139.276 L 289.243 139.276 C 287.784 140.948 285.903 142.62 284.021 143.874 C 283.605 144.083 283.186 144.292 282.768 144.292 C 282.558 144.292 282.142 144.292 281.932 144.083 L 281.724 144.083 L 280.051 145.127 C 278.382 143.455 276.5 141.783 274.828 140.114 C 267.098 134.053 257.488 130.293 247.668 129.249 L 247.458 127.578 L 247.458 127.578 L 247.458 127.786 C 246.833 127.368 246.624 126.742 246.414 126.114 C 246.414 123.817 246.414 121.517 246.833 119.011 L 246.833 118.801 C 246.833 118.384 247.041 117.966 247.041 117.548 C 247.251 116.713 247.251 115.878 247.458 115.04 L 247.458 113.788 L 247.458 113.788 C 247.668 111.699 245.997 109.609 243.907 109.4 C 242.654 109.192 241.401 109.817 240.357 110.862 C 239.52 111.699 239.103 112.744 239.103 113.788 L 239.103 113.788 L 239.103 114.832 C 239.103 115.669 239.31 116.503 239.52 117.34 C 239.728 117.757 239.728 118.175 239.728 118.594 L 239.728 118.801 C 240.147 121.101 240.147 123.398 240.147 125.905 C 239.938 126.533 239.728 127.159 239.103 127.578 L 239.103 127.995 L 239.103 127.995 L 238.893 129.666 C 236.594 129.874 234.297 130.293 231.79 130.712 C 221.969 132.8 212.986 138.023 206.091 145.337 L 204.838 144.5 L 204.629 144.5 C 204.419 144.5 204.212 144.708 203.793 144.708 C 203.375 144.708 202.956 144.5 202.541 144.292 C 200.659 142.829 198.78 141.158 197.318 139.485 L 197.318 139.485 C 197.108 139.067 196.689 138.86 196.48 138.651 C 195.855 138.023 195.436 137.397 194.808 136.77 C 194.601 136.56 194.392 136.56 194.183 136.351 C 193.974 136.143 193.974 136.143 193.974 136.143 L 193.974 136.143 C 193.139 135.516 192.095 135.097 191.049 135.097 C 189.795 135.097 188.751 135.516 188.122 136.56 C 186.87 138.441 187.288 140.948 188.96 142.411 L 188.96 142.411 C 189.169 142.411 189.169 142.62 189.169 142.62 C 189.169 142.62 189.586 143.037 189.795 143.037 C 190.422 143.455 191.257 143.874 192.095 144.292 C 192.511 144.5 192.93 144.708 193.347 144.918 L 193.347 144.918 C 195.436 146.171 197.524 147.425 199.197 149.096 C 199.615 149.515 200.033 150.35 199.824 150.977 L 199.824 150.768 L 199.824 150.768 L 201.078 152.022 C 200.868 152.438 200.659 152.648 200.45 153.066 C 193.974 163.303 191.257 175.42 193.139 187.331 L 191.467 187.747 L 191.467 187.747 C 191.467 187.956 191.257 187.956 191.257 187.956 C 191.049 188.585 190.422 189.001 189.795 189.42 C 187.497 190.047 185.199 190.464 182.691 190.673 L 182.691 190.673 C 182.274 190.673 181.855 190.673 181.438 190.882 C 180.602 190.882 179.767 191.091 178.93 191.091 C 178.721 191.091 178.514 191.301 178.096 191.301 C 177.886 191.301 177.886 191.301 177.677 191.51 L 177.677 191.51 C 175.379 191.926 173.917 194.016 174.335 196.314 C 174.335 196.314 174.335 196.314 174.335 196.314 C 174.752 198.195 176.633 199.449 178.514 199.239 C 178.93 199.239 179.14 199.239 179.558 199.031 L 179.558 199.031 C 179.767 199.031 179.767 199.031 179.767 198.821 C 179.767 198.612 180.393 198.821 180.602 198.821 C 181.438 198.612 182.274 198.195 182.9 197.986 C 183.319 197.777 183.737 197.568 184.153 197.568 L 184.363 197.568 C 186.663 196.733 188.751 196.105 191.257 195.687 L 191.467 195.687 C 192.095 195.687 192.72 195.896 193.139 196.314 C 193.347 196.314 193.347 196.523 193.347 196.523 L 193.347 196.523 L 195.227 196.314 C 198.362 205.925 204.212 214.49 212.358 220.759 C 214.24 222.222 215.912 223.475 218 224.52 L 216.956 225.982 L 216.956 225.982 C 216.956 226.191 217.165 226.191 217.165 226.191 C 217.583 226.817 217.583 227.654 217.375 228.28 C 216.537 230.37 215.284 232.458 214.031 234.339 L 214.031 234.549 C 213.821 234.966 213.614 235.174 213.196 235.593 C 212.777 236.012 212.358 236.847 211.733 237.681 C 211.523 237.891 211.523 238.1 211.314 238.309 C 211.314 238.309 211.314 238.518 211.105 238.518 L 211.105 238.518 C 210.061 240.606 210.898 243.114 212.777 244.158 C 213.196 244.367 213.821 244.576 214.24 244.576 C 215.912 244.576 217.375 243.531 218.209 242.069 L 218.209 242.069 C 218.209 242.069 218.209 241.86 218.419 241.86 C 218.419 241.65 218.627 241.442 218.837 241.235 C 219.046 240.397 219.463 239.772 219.671 238.935 L 220.09 237.681 L 220.09 237.681 C 220.715 235.383 221.762 233.295 222.806 231.205 C 223.223 230.579 223.85 230.161 224.476 229.951 C 224.686 229.951 224.686 229.951 224.686 229.743 L 224.686 229.743 L 225.523 228.07 C 231.371 230.37 237.431 231.414 243.698 231.414 C 247.458 231.414 251.22 230.995 254.981 229.951 C 257.279 229.533 259.577 228.699 261.667 228.07 L 262.502 229.533 L 262.502 229.533 C 262.711 229.533 262.711 229.533 262.711 229.743 C 263.338 229.951 263.964 230.37 264.383 230.995 C 265.427 233.086 266.471 235.174 267.098 237.472 L 267.098 237.681 L 267.517 238.935 C 267.725 239.772 267.934 240.606 268.352 241.235 C 268.561 241.442 268.561 241.65 268.771 241.86 C 268.771 241.86 268.771 242.069 268.978 242.069 L 268.978 242.069 C 269.815 243.531 271.277 244.576 272.95 244.576 C 273.575 244.576 273.994 244.367 274.619 244.158 C 275.456 243.741 276.291 242.904 276.5 241.86 C 276.709 240.816 276.709 239.772 276.291 238.725 L 276.291 238.725 C 276.291 238.518 276.082 238.518 276.082 238.518 C 276.082 238.309 275.873 238.1 275.665 237.891 C 275.247 237.056 274.828 236.428 274.203 235.802 C 273.994 235.383 273.784 235.174 273.365 234.756 L 273.365 234.339 C 271.903 232.458 270.859 230.37 270.024 228.28 C 269.815 227.654 269.815 226.817 270.233 226.191 C 270.233 225.982 270.44 225.982 270.44 225.982 L 270.44 225.982 L 269.815 224.31 C 280.47 217.834 288.618 207.804 292.378 195.896 L 294.051 196.105 L 294.051 196.105 C 294.26 196.105 294.26 195.896 294.26 195.896 C 294.676 195.479 295.304 195.27 295.929 195.27 L 296.139 195.27 C 298.439 195.687 300.735 196.314 302.825 197.15 L 303.033 197.15 C 303.452 197.358 303.87 197.568 304.287 197.568 C 305.124 197.986 305.75 198.402 306.587 198.612 C 306.794 198.612 307.003 198.821 307.421 198.821 C 307.631 198.821 307.631 198.821 307.84 199.031 L 307.84 199.031 C 308.256 199.239 308.466 199.239 308.884 199.239 C 310.763 199.239 312.435 197.986 313.063 196.314 C 312.854 194.016 311.182 192.345 309.302 191.926 Z M 248.921 185.45 L 243.282 188.166 L 237.64 185.45 L 236.178 179.392 L 240.147 174.376 L 246.414 174.376 L 250.383 179.392 L 248.921 185.45 Z M 282.976 171.869 C 284.021 176.257 284.23 180.645 283.812 185.031 L 263.964 179.392 L 263.964 179.392 C 262.085 178.974 261.039 177.093 261.458 175.213 C 261.667 174.586 261.875 174.167 262.292 173.751 L 277.963 159.542 C 280.261 163.303 281.932 167.482 282.976 171.869 Z M 271.694 151.813 L 254.562 163.93 C 253.1 164.765 251.012 164.558 249.968 163.096 C 249.549 162.677 249.339 162.259 249.339 161.633 L 248.086 140.53 C 257.279 141.576 265.427 145.545 271.694 151.813 L 271.694 151.813 Z M 233.88 141.158 L 238.057 140.32 L 237.012 161.215 L 237.012 161.215 C 237.012 163.096 235.341 164.558 233.461 164.558 C 232.834 164.558 232.417 164.349 231.79 164.14 L 214.448 151.813 C 219.881 146.589 226.567 142.829 233.88 141.158 Z M 208.389 159.542 L 223.85 173.332 L 223.85 173.332 C 225.313 174.586 225.523 176.676 224.269 178.137 C 223.85 178.764 223.432 178.974 222.597 179.183 L 202.331 185.031 C 201.703 176.257 203.793 167.272 208.389 159.542 Z M 204.838 194.852 L 225.523 191.301 C 227.192 191.301 228.864 192.345 229.073 194.016 C 229.282 194.642 229.282 195.479 228.864 196.105 L 228.864 196.105 L 220.925 215.327 C 213.614 210.521 207.764 203.209 204.838 194.852 Z M 252.264 220.759 C 249.339 221.385 246.414 221.803 243.282 221.803 C 238.893 221.803 234.297 220.968 230.118 219.715 L 240.357 201.119 C 241.401 199.865 243.072 199.449 244.535 200.284 C 245.16 200.702 245.579 201.119 246.205 201.746 L 246.205 201.746 L 256.235 219.922 C 254.981 220.132 253.727 220.34 252.264 220.759 Z M 277.754 202.581 C 274.619 207.598 270.233 211.983 265.217 215.117 L 257.069 195.479 C 256.653 193.808 257.488 192.135 258.95 191.51 C 259.577 191.301 260.204 191.091 260.831 191.091 L 281.724 194.642 C 280.679 197.568 279.426 200.284 277.754 202.581 Z" id="path10351" style="fill: rgb(255, 255, 255);"/>
  <path d="M 424.164 333.58 C 425.59 333.682 427.118 333.478 428.442 332.969 C 429.256 332.562 429.766 331.645 429.664 330.728 C 429.562 329.71 428.951 328.793 428.034 328.488 C 426.507 327.571 424.775 326.757 423.044 326.247 C 421.312 325.636 419.785 324.923 418.359 324.21 C 417.035 323.599 415.915 322.785 414.794 321.766 C 413.776 320.748 413.063 319.627 412.554 318.303 C 411.943 316.776 411.739 315.146 411.739 313.517 C 411.637 310.156 413.165 306.897 415.813 304.86 C 418.563 302.721 422.229 301.703 426.914 301.703 C 429.155 301.703 431.497 301.906 433.738 302.416 C 435.469 302.721 437.2 303.128 438.932 303.74 L 436.997 312.396 C 435.571 311.887 434.247 311.582 432.821 311.174 C 431.191 310.767 429.46 310.665 427.831 310.665 C 424.368 310.665 422.636 311.582 422.636 313.517 C 422.636 313.924 422.738 314.331 422.84 314.739 C 423.044 315.146 423.349 315.452 423.757 315.757 C 424.164 316.063 424.775 316.368 425.488 316.776 C 426.201 317.183 427.219 317.59 428.442 317.998 C 430.478 318.711 432.515 319.627 434.349 320.646 C 435.774 321.359 436.997 322.275 438.015 323.497 C 438.932 324.414 439.543 325.534 439.95 326.858 C 440.357 328.284 440.561 329.71 440.561 331.136 C 440.765 334.599 439.135 337.959 436.182 339.895 C 433.33 341.83 429.256 342.848 423.96 342.848 C 421.007 342.95 418.155 342.644 415.304 341.931 C 413.674 341.524 412.146 341.015 410.619 340.506 L 412.452 331.543 C 414.285 332.256 416.22 332.867 418.155 333.275 C 420.192 333.376 422.127 333.58 424.164 333.58 M 368.047 322.377 C 367.946 319.322 368.557 316.266 369.575 313.415 C 370.492 310.971 371.918 308.832 373.751 306.897 C 375.482 305.165 377.417 303.841 379.658 303.027 C 381.898 302.11 384.241 301.703 386.583 301.703 C 392.083 301.703 396.462 303.434 399.619 306.795 C 402.777 310.156 404.406 315.146 404.406 321.664 C 404.406 322.275 404.406 322.988 404.304 323.803 C 404.304 324.618 404.202 325.229 404.202 325.84 L 379.352 325.84 C 379.556 327.979 380.676 330.016 382.509 331.238 C 384.75 332.664 387.398 333.376 390.046 333.275 C 391.981 333.275 394.018 333.071 395.953 332.765 C 397.583 332.46 399.212 331.951 400.74 331.238 L 402.267 340.2 C 401.555 340.607 400.74 340.811 399.925 341.117 C 398.805 341.422 397.684 341.728 396.564 341.83 C 395.342 342.033 394.12 342.237 392.694 342.441 C 391.37 342.543 389.944 342.644 388.518 342.644 C 385.361 342.746 382.306 342.237 379.352 341.117 C 376.908 340.2 374.769 338.774 372.936 336.941 C 371.205 335.108 369.983 332.867 369.168 330.525 C 368.455 327.775 368.047 325.025 368.047 322.377 M 393.814 318.202 C 393.814 317.285 393.611 316.368 393.305 315.452 C 393.101 314.535 392.592 313.822 392.083 313.109 C 391.472 312.396 390.759 311.785 389.944 311.378 C 388.926 310.869 387.907 310.665 386.787 310.665 C 385.667 310.665 384.648 310.869 383.63 311.378 C 382.815 311.785 382 312.295 381.389 313.007 C 380.778 313.72 380.269 314.535 379.963 315.452 C 379.658 316.368 379.454 317.285 379.352 318.202 L 393.814 318.202 M 338.207 292.944 L 349.206 291.213 L 349.206 302.619 L 362.446 302.619 L 362.446 311.785 L 349.206 311.785 L 349.206 325.433 C 349.104 327.368 349.512 329.303 350.428 330.932 C 351.243 332.256 352.873 332.969 355.419 332.969 C 356.641 332.969 357.863 332.867 358.983 332.664 C 360.205 332.46 361.326 332.154 362.446 331.747 L 363.974 340.302 C 362.548 340.913 361.02 341.32 359.493 341.728 C 357.557 342.135 355.521 342.339 353.484 342.339 C 350.938 342.441 348.391 342.033 346.049 341.117 C 344.216 340.404 342.586 339.182 341.364 337.756 C 340.142 336.228 339.327 334.395 338.818 332.46 C 338.309 330.219 338.105 327.877 338.207 325.636 L 338.207 292.944 M 293.701 322.377 C 293.599 319.322 294.21 316.266 295.228 313.415 C 296.145 310.971 297.571 308.832 299.404 306.897 C 301.135 305.165 303.07 303.841 305.311 303.027 C 307.552 302.11 309.894 301.703 312.236 301.703 C 317.736 301.703 322.115 303.434 325.273 306.795 C 328.43 310.156 330.059 315.146 330.059 321.664 C 330.059 322.275 330.059 322.988 329.957 323.803 C 329.856 324.618 329.856 325.229 329.856 325.84 L 304.904 325.84 C 305.107 327.979 306.228 330.016 308.061 331.238 C 310.301 332.664 312.949 333.376 315.597 333.275 C 317.532 333.275 319.569 333.071 321.504 332.765 C 323.134 332.46 324.763 331.951 326.393 331.238 L 327.921 340.2 C 327.208 340.607 326.393 340.811 325.578 341.117 C 324.458 341.422 323.338 341.728 322.217 341.83 C 320.995 342.033 319.773 342.237 318.347 342.441 C 317.023 342.543 315.597 342.644 314.171 342.644 C 311.014 342.746 307.959 342.237 305.005 341.117 C 302.561 340.2 300.422 338.774 298.589 336.941 C 296.858 335.108 295.636 332.867 294.821 330.525 C 294.006 327.775 293.599 325.025 293.701 322.377 M 319.467 318.202 C 319.467 317.285 319.264 316.368 318.958 315.452 C 318.755 314.535 318.245 313.822 317.736 313.109 C 317.125 312.396 316.412 311.785 315.597 311.378 C 314.579 310.869 313.56 310.665 312.44 310.665 C 311.32 310.665 310.301 310.869 309.283 311.378 C 308.468 311.785 307.755 312.295 307.144 313.007 C 306.533 313.72 306.024 314.535 305.718 315.452 C 305.413 316.368 305.209 317.285 305.107 318.202 L 319.467 318.202 M 251.944 303.943 C 254.287 303.332 256.731 302.823 259.175 302.416 C 262.231 301.906 265.388 301.703 268.443 301.703 C 271.193 301.601 273.943 302.11 276.591 303.027 C 278.628 303.74 280.461 304.962 281.785 306.591 C 283.109 308.221 284.025 310.156 284.535 312.193 C 285.146 314.535 285.349 316.979 285.349 319.424 L 285.349 341.32 L 274.452 341.32 L 274.452 320.85 C 274.452 317.285 273.943 314.841 273.026 313.313 C 272.109 311.887 270.378 311.072 267.832 311.072 C 267.017 311.072 266.202 311.072 265.286 311.174 C 264.369 311.174 263.656 311.276 262.943 311.378 L 262.943 341.32 L 251.944 341.32 L 251.944 303.943 M 244.204 312.396 C 243.185 312.193 242.065 311.887 240.741 311.683 C 239.315 311.378 237.89 311.276 236.464 311.276 C 235.649 311.276 234.834 311.378 233.918 311.48 C 233.205 311.582 232.492 311.683 231.779 311.887 L 231.779 341.524 L 220.78 341.524 L 220.78 304.656 C 223.02 303.841 225.363 303.23 227.705 302.721 C 230.659 302.008 233.714 301.703 236.667 301.804 C 237.38 301.804 238.093 301.906 238.806 301.906 C 239.621 301.906 240.436 302.008 241.352 302.212 C 242.167 302.314 242.982 302.416 243.898 302.619 C 244.611 302.721 245.324 302.925 246.037 303.23 L 244.204 312.396 M 175.866 322.377 C 175.764 319.322 176.375 316.266 177.394 313.415 C 178.31 310.971 179.736 308.832 181.569 306.897 C 183.301 305.165 185.236 303.841 187.476 303.027 C 189.717 302.11 192.059 301.703 194.402 301.703 C 199.901 301.703 204.281 303.434 207.438 306.795 C 210.595 310.156 212.225 315.146 212.225 321.562 C 212.225 322.174 212.225 322.886 212.123 323.701 C 212.021 324.516 212.021 325.127 212.021 325.738 L 187.069 325.738 C 187.273 327.877 188.393 329.914 190.226 331.136 C 192.467 332.562 195.115 333.275 197.763 333.173 C 199.698 333.173 201.735 332.969 203.67 332.664 C 205.299 332.358 206.929 331.849 208.456 331.238 L 209.984 340.2 C 209.271 340.607 208.456 340.811 207.642 341.117 C 206.521 341.422 205.401 341.728 204.281 341.83 C 203.059 342.033 201.836 342.237 200.411 342.441 C 199.087 342.543 197.661 342.644 196.235 342.644 C 193.078 342.746 190.022 342.237 187.069 341.117 C 184.625 340.2 182.486 338.774 180.653 336.941 C 178.921 335.108 177.699 332.867 176.884 330.525 C 176.273 327.775 175.866 325.127 175.866 322.377 M 201.735 318.202 C 201.735 317.285 201.531 316.368 201.225 315.452 C 201.022 314.535 200.512 313.822 200.003 313.109 C 199.392 312.396 198.679 311.785 197.864 311.378 C 196.846 310.869 195.828 310.665 194.707 310.665 C 193.587 310.665 192.569 310.869 191.55 311.378 C 190.735 311.785 189.921 312.295 189.309 313.007 C 188.698 313.72 188.189 314.535 187.884 315.452 C 187.578 316.368 187.374 317.285 187.273 318.202 L 201.735 318.202 M 158.043 321.766 C 158.043 314.637 155.395 311.174 150.201 311.174 C 149.081 311.174 147.96 311.276 146.84 311.582 C 145.923 311.785 145.007 312.193 144.192 312.702 L 144.192 332.664 C 144.701 332.765 145.414 332.867 146.229 332.969 C 147.044 333.071 147.96 333.071 148.979 333.071 C 151.627 333.275 154.173 332.154 155.802 330.016 C 157.33 327.571 158.145 324.72 158.043 321.766 M 169.246 322.174 C 169.246 325.025 168.839 327.877 167.82 330.627 C 167.005 333.071 165.681 335.21 163.95 337.043 C 162.117 338.876 159.978 340.302 157.636 341.219 C 154.886 342.237 152.034 342.644 149.081 342.644 C 147.757 342.644 146.331 342.543 144.905 342.441 C 143.479 342.339 142.053 342.135 140.628 342.033 C 139.304 341.83 137.98 341.626 136.656 341.32 C 135.332 341.117 134.211 340.811 133.295 340.404 L 133.295 285.917 L 144.294 284.185 L 144.294 303.536 C 145.516 303.027 146.84 302.619 148.164 302.314 C 149.59 302.008 151.016 301.906 152.442 301.906 C 154.988 301.906 157.432 302.314 159.774 303.434 C 161.811 304.351 163.645 305.776 165.07 307.508 C 166.598 309.443 167.718 311.582 168.329 313.924 C 168.94 316.47 169.246 319.322 169.246 322.174 M 122.805 340.098 C 120.462 340.709 118.018 341.219 115.574 341.524 C 112.518 342.033 109.361 342.237 106.306 342.237 C 103.454 342.339 100.704 341.83 98.056 340.913 C 96.019 340.098 94.288 338.876 92.862 337.247 C 91.538 335.515 90.622 333.58 90.112 331.441 C 89.501 329.099 89.298 326.553 89.298 324.109 L 89.298 302.619 L 100.297 302.619 L 100.297 322.886 C 100.297 326.451 100.806 328.997 101.723 330.525 C 102.639 332.052 104.371 332.867 106.917 332.867 C 107.732 332.867 108.546 332.867 109.463 332.765 C 110.38 332.664 111.092 332.664 111.805 332.46 L 111.805 302.619 L 122.805 302.619 L 122.805 340.098 M 58.642 316.674 C 59.763 315.452 60.781 314.23 62.003 313.007 C 63.123 311.683 64.244 310.461 65.364 309.239 C 66.484 307.915 67.503 306.795 68.419 305.675 C 69.336 304.554 70.253 303.536 70.966 302.721 L 84.002 302.721 C 81.354 305.675 78.808 308.628 76.363 311.378 C 73.817 314.128 71.169 316.979 68.216 319.831 C 69.845 321.359 71.373 322.886 72.799 324.618 C 74.326 326.451 75.854 328.284 77.382 330.321 C 78.808 332.256 80.233 334.293 81.456 336.228 C 82.678 338.163 83.696 339.996 84.511 341.626 L 71.882 341.626 C 71.067 340.302 70.151 338.978 69.132 337.45 C 68.114 335.923 66.994 334.395 65.975 332.765 C 64.855 331.238 63.633 329.71 62.309 328.284 C 61.188 326.96 59.966 325.738 58.642 324.72 L 58.642 341.728 L 47.643 341.728 L 47.643 285.917 L 58.642 284.185 L 58.642 316.674" id="path3003" style="fill: rgb(0, 0, 0);"/>
</svg>