<?xml version="1.0" encoding="utf-8"?>
<svg viewBox="2.463 142.857 509.237 150.862" xmlns="http://www.w3.org/2000/svg">
  <path class="text" fill="#000" d="M 157.573 198.953 L 139.415 198.953 L 139.415 188.107 L 188.05 188.107 L 188.05 198.953 L 169.87 198.953 L 169.87 253.144 L 157.615 253.144 L 157.573 198.953 Z" style=""/>
  <path class="text" fill="#000" d="M 199.264 244.362 C 204.197 244.335 209.099 243.579 213.808 242.114 L 215.666 251.102 C 210.059 253.122 204.142 254.145 198.182 254.125 C 183.25 254.125 178.061 247.201 178.061 235.742 L 178.061 223.18 C 178.061 213.129 182.556 204.633 197.793 204.633 C 213.031 204.633 216.443 213.518 216.443 223.771 L 216.443 233.985 L 189.888 233.985 L 189.888 236.436 C 189.991 242.114 192.033 244.362 199.264 244.362 Z M 189.991 224.405 L 205.126 224.405 L 205.126 221.995 C 205.126 217.5 203.758 214.375 197.895 214.375 C 192.033 214.375 189.991 217.5 189.991 221.995 Z M 248.287 215.56 C 243.902 217.537 239.673 219.854 235.643 222.485 L 235.643 253.124 L 223.735 253.124 L 223.735 205.593 L 233.784 205.593 L 234.561 210.862 C 238.436 208.237 242.64 206.138 247.062 204.612 Z M 277.374 215.56 C 273.003 217.539 268.789 219.856 264.771 222.485 L 264.771 253.124 L 252.863 253.124 L 252.863 205.593 L 262.912 205.593 L 263.689 210.862 C 267.563 208.237 271.767 206.138 276.19 204.612 Z M 317.225 253.144 L 307.462 253.144 L 306.584 249.918 C 302.371 252.658 297.455 254.12 292.428 254.125 C 283.747 254.125 280.03 248.161 280.03 239.97 C 280.03 230.308 284.237 226.591 293.899 226.591 L 305.317 226.591 L 305.317 221.606 C 305.317 216.336 303.847 214.478 296.228 214.478 C 291.799 214.526 287.385 215.019 283.052 215.949 L 281.581 206.858 C 286.905 205.386 292.402 204.63 297.923 204.612 C 312.855 204.612 317.266 209.882 317.266 221.79 Z M 305.317 235.17 L 296.534 235.17 C 292.633 235.17 291.55 236.252 291.55 239.847 C 291.55 243.443 292.633 244.627 296.329 244.627 C 299.486 244.578 302.577 243.734 305.317 242.176 Z M 353.829 194.746 C 351.581 194.261 349.289 194.002 346.987 193.97 C 342.309 193.97 341.615 196.012 341.615 199.627 L 341.615 205.593 L 353.728 205.593 L 353.054 215.07 L 341.635 215.07 L 341.635 253.144 L 329.727 253.144 L 329.727 215.07 L 322.107 215.07 L 322.107 205.593 L 329.727 205.593 L 329.727 198.953 C 329.727 189.088 334.322 184.206 344.863 184.206 C 348.314 184.191 351.75 184.654 355.075 185.575 Z M 377.075 254.125 C 360.734 254.125 356.383 245.138 356.383 235.374 L 356.383 223.363 C 356.383 213.599 360.775 204.612 377.075 204.612 C 393.375 204.612 397.767 213.599 397.767 223.363 L 397.767 235.374 C 397.787 245.138 393.375 254.125 377.075 254.125 Z M 377.075 214.764 C 370.722 214.764 368.291 217.603 368.291 222.934 L 368.291 235.721 C 368.291 241.093 370.742 243.892 377.075 243.892 C 383.407 243.892 385.859 241.052 385.859 235.721 L 385.859 222.976 C 385.859 217.603 383.428 214.764 377.075 214.764 Z M 428.427 215.56 C 424.055 217.539 419.842 219.856 415.823 222.485 L 415.823 253.124 L 403.915 253.124 L 403.915 205.593 L 413.965 205.593 L 414.741 210.862 C 418.616 208.237 422.82 206.136 427.242 204.612 Z M 461.15 253.144 L 461.15 219.952 C 461.15 217.419 460.066 216.153 457.351 216.153 C 452.987 216.669 448.771 218.061 444.951 220.238 L 444.951 253.144 L 433.043 253.144 L 433.043 205.593 L 442.133 205.593 L 443.297 209.678 C 449.233 206.675 455.733 204.949 462.375 204.612 C 466.142 204.257 469.728 206.287 471.362 209.698 C 477.305 206.651 483.833 204.917 490.502 204.612 C 498.407 204.612 501.246 210.168 501.246 218.665 L 501.246 253.144 L 489.338 253.144 L 489.338 219.952 C 489.338 217.419 488.255 216.153 485.539 216.153 C 481.167 216.632 476.943 218.025 473.14 220.238 L 473.14 253.144 Z" style=""/>
  <path class="rect-dark" fill="#4040B2" d="M 85.419 198.972 L 85.419 237.638 L 118.919 218.315 L 118.919 179.607 L 85.419 198.972 Z" style=""/>
  <path class="rect-light" fill="#5C4EE5" d="M 48.244 179.607 L 81.743 198.972 L 81.743 237.638 L 48.244 218.294 L 48.244 179.607 Z" style=""/>
  <path class="rect-light" fill="#5C4EE5" d="M 11.068 158.017 L 11.068 196.704 L 44.567 216.048 L 44.567 177.36 L 11.068 158.017 Z M 48.244 261.231 L 81.743 280.575 L 81.743 241.887 L 48.244 222.544 L 48.244 261.231 Z" style=""/>
</svg>