<svg xmlns="http://www.w3.org/2000/svg" width="413" height="85"  fill-rule="evenodd" xmlns:v="https://vecta.io/nano"><path d="M255.942 20.921c-8.904 1.056-15.755 5.879-19.812 13.943-3.697 7.354-3.985 14.928-3.985 17.074 0 2.135.288 9.668 3.995 17.005 4.056 8.027 10.9 12.872 19.793 14.013 1.88.241 4.113.363 6.634.363 7.711 0 15.86-1.147 15.94-1.159l.514-.13V68.665s-8.53.603-13.016.603c-5.574 0-7.981-.356-9.018-.655-6.283-1.808-6.914-11.289-6.892-15.277v-2.791c-.022-4.086.603-13.754 6.849-15.27 1.827-.443 5.057-.677 9.34-.677 4.473 0 12.737.313 12.737.313V21.784l-.506-.137c-.073-.01-7.481-1.112-15.282-1.112-2.683 0-5.136.13-7.291.386zM397 0h16v83h-16V0zM113.64 45.026H89.501c.625-5.434 1.837-11.467 11.914-11.467 11.66 0 11.932 5.385 12.195 10.593l.03.574v.3zm-12.452-24.98c-6.635 0-15.795 1.766-21.755 8.27-5.144 5.507-8.095 13.748-8.095 22.614v2.263c0 1.478.21 9.234 4.368 16.733 4.316 7.785 11.436 12.422 20.59 13.409 1.574.171 3.269.257 5.037.257 10.979 0 21.387-3.225 21.841-3.362l.758-.229V68.097s-13.852 1.545-18.558 1.691c-14.382.447-16.073-7.205-16.247-12.754L129 57v-9.997c.079-8.742-1.838-15.218-6.6-19.791-5.732-5.593-14.266-7.166-20.417-7.166h-.795zm106.452 24.98h-24.139c.625-5.434 1.837-11.467 11.914-11.467 11.66 0 11.932 5.385 12.195 10.593l.03.574v.3zm-12.452-24.98c-6.635 0-15.795 1.766-21.755 8.27-5.144 5.507-8.095 13.748-8.095 22.614v2.263c0 1.478.21 9.234 4.368 16.733 4.316 7.785 11.436 12.422 20.59 13.409 1.574.171 3.269.257 5.037.257 10.979 0 21.387-3.225 21.841-3.362l.758-.229V68.097s-13.852 1.545-18.558 1.691c-14.382.447-16.073-7.205-16.247-12.754L223 57v-9.997c.079-8.742-1.838-15.218-6.6-19.791-5.732-5.593-14.266-7.166-20.417-7.166h-.795zm175.452 24.98h-24.139c.625-5.434 1.837-11.467 11.914-11.467 11.66 0 11.932 5.385 12.195 10.593l.03.574v.3zm-12.452-24.98c-6.635 0-15.795 1.766-21.755 8.27-5.144 5.507-8.095 13.748-8.095 22.614v2.263c0 1.478.21 9.234 4.368 16.733 4.316 7.785 11.436 12.422 20.59 13.409 1.574.171 3.269.257 5.037.257 10.979 0 21.387-3.225 21.841-3.362l.758-.229V68.097s-13.852 1.545-18.558 1.691c-14.382.447-16.073-7.205-16.247-12.754L386 57v-9.997c.079-8.742-1.838-15.218-6.6-19.791-5.732-5.593-14.266-7.166-20.417-7.166h-.795zM140 0h16v83h-16V0z" fill="#343433"/><path d="M307 35h14V22h-14V1h-17v57h17V35M40.011 54.071c1.663.656 2.903 1.667 3.685 3.006l.308.927h17.638l-.149-1.595C59.885 43.413 50.849 40.163 42.11 37.02c-2.933-1.054-8.164-2.807-11.984-4.086l-4.225-1.429c-5.053-1.843-9.192-3.776-8.659-8.788.451-4.244 4.054-5.988 12.432-6.017 8.469.019 25.578 1.424 25.75 1.439l1.552.095V5.058l-1.202-.205c-.117-.03-16.291-3.024-26.321-3.084l-.414-.001c-7.289 0-13.335 1.23-17.972 3.659C3.81 9.227.13 15.806.13 24.977c0 10.086 6.589 16.805 22.033 22.469l17.848 6.625z" fill="#bf3936"/><path d="M43.874 64.21c-1.955 4.107-7.409 4.597-12.906 4.597h-.661c-8.772 0-27.631-1.945-27.82-1.964l-1.474-.122v14.372l1.106.202c.135.034 15.863 3.391 27.367 3.391 19.364 0 30.412-7.342 32.036-20.676l-17.648.1L52 66l-8.126-1.79zM314 69c-4.733.188-7.009-1.329-7-5h-17c.141 12.879 9.028 18.226 17 19 .962-.025 1.636 0 2 0 5.477 0 13-1.47 13-1V69c0-.265-6.006.188-8 0" fill="#343433"/></svg>